<?xml version="1.0" standalone="no"?>
<!DOCTYPE svg PUBLIC "-//W3C//DTD SVG 20010904//EN"
 "http://www.w3.org/TR/2001/REC-SVG-20010904/DTD/svg10.dtd">
<svg version="1.0" xmlns="http://www.w3.org/2000/svg"
 width="512.000000pt" height="512.000000pt" viewBox="0 0 512.000000 512.000000"
 preserveAspectRatio="xMidYMid meet">

<g transform="translate(0.000000,512.000000) scale(0.100000,-0.100000)"
fill="#000000" stroke="none">
<path d="M2732 4193 c-68 -33 -101 -129 -70 -203 11 -26 138 -142 485 -445
l471 -410 -1297 -5 c-1285 -5 -1296 -5 -1331 -26 -58 -34 -82 -79 -78 -145 5
-65 32 -109 82 -133 31 -15 173 -16 1566 -16 1694 0 1574 -5 1622 63 29 40 36
123 14 165 -9 17 -119 121 -244 230 -754 659 -1040 907 -1067 923 -37 23 -108
24 -153 2z"/>
<path d="M992 2293 c-18 -9 -42 -29 -54 -46 -29 -40 -36 -123 -14 -165 15 -30
1248 -1114 1311 -1153 61 -38 164 -16 207 44 27 38 35 112 15 158 -11 26 -134
139 -484 445 l-470 409 1296 5 c1285 5 1296 5 1331 26 58 34 82 79 78 145 -5
65 -32 109 -82 133 -31 15 -173 16 -1568 16 -1392 0 -1536 -2 -1566 -17z"/>
</g>
</svg>
